<mxfile host="app.diagrams.net" agent="Mozilla/5.0 (Windows NT 10.0; Win64; x64) AppleWebKit/537.36 (KHTML, like Gecko) Chrome/141.0.0.0 Safari/537.36 Edg/141.0.0.0" version="28.2.8">
  <diagram name="Page-1" id="0783ab3e-0a74-02c8-0abd-f7b4e66b4bec">
    <mxGraphModel dx="2058" dy="1116" grid="1" gridSize="10" guides="1" tooltips="1" connect="1" arrows="1" fold="1" page="1" pageScale="1" pageWidth="850" pageHeight="1100" background="none" math="0" shadow="0">
      <root>
        <mxCell id="0" />
        <mxCell id="1" parent="0" />
        <mxCell id="1c1d494c118603dd-1" value="Manage Visitor Registration Flow" style="swimlane;html=1;childLayout=stackLayout;startSize=20;rounded=0;shadow=0;comic=0;labelBackgroundColor=none;strokeWidth=1;fontFamily=Verdana;fontSize=12;align=center;" parent="1" vertex="1">
          <mxGeometry x="40" y="20" width="760" height="1300" as="geometry" />
        </mxCell>
        <mxCell id="1c1d494c118603dd-2" value="Visitor" style="swimlane;html=1;startSize=20;" parent="1c1d494c118603dd-1" vertex="1">
          <mxGeometry y="20" width="250" height="1280" as="geometry" />
        </mxCell>
        <mxCell id="tKoQLFKlRTiB3hd4TVec-3" style="edgeStyle=orthogonalEdgeStyle;rounded=0;orthogonalLoop=1;jettySize=auto;html=1;entryX=0.5;entryY=0;entryDx=0;entryDy=0;" edge="1" parent="1c1d494c118603dd-2" source="tKoQLFKlRTiB3hd4TVec-1" target="tKoQLFKlRTiB3hd4TVec-2">
          <mxGeometry relative="1" as="geometry" />
        </mxCell>
        <mxCell id="tKoQLFKlRTiB3hd4TVec-1" value="" style="ellipse;whiteSpace=wrap;html=1;rounded=0;shadow=0;comic=0;labelBackgroundColor=none;strokeWidth=1;fillColor=#000000;fontFamily=Verdana;fontSize=12;align=center;" vertex="1" parent="1c1d494c118603dd-2">
          <mxGeometry x="105" y="50" width="40" height="40" as="geometry" />
        </mxCell>
        <mxCell id="tKoQLFKlRTiB3hd4TVec-5" value="" style="edgeStyle=orthogonalEdgeStyle;rounded=0;orthogonalLoop=1;jettySize=auto;html=1;" edge="1" parent="1c1d494c118603dd-2" source="tKoQLFKlRTiB3hd4TVec-2" target="tKoQLFKlRTiB3hd4TVec-4">
          <mxGeometry relative="1" as="geometry" />
        </mxCell>
        <mxCell id="tKoQLFKlRTiB3hd4TVec-2" value="Fill in visitor information" style="rounded=1;whiteSpace=wrap;html=1;shadow=0;comic=0;labelBackgroundColor=none;strokeWidth=1;fontFamily=Verdana;fontSize=12;align=center;arcSize=50;" vertex="1" parent="1c1d494c118603dd-2">
          <mxGeometry x="75" y="150" width="100" height="30" as="geometry" />
        </mxCell>
        <mxCell id="tKoQLFKlRTiB3hd4TVec-4" value="Submit registration request" style="whiteSpace=wrap;html=1;fontFamily=Verdana;rounded=1;shadow=0;comic=0;labelBackgroundColor=none;strokeWidth=1;arcSize=50;" vertex="1" parent="1c1d494c118603dd-2">
          <mxGeometry x="57.5" y="230" width="135" height="50" as="geometry" />
        </mxCell>
        <mxCell id="tKoQLFKlRTiB3hd4TVec-32" style="edgeStyle=orthogonalEdgeStyle;rounded=0;orthogonalLoop=1;jettySize=auto;html=1;entryX=0.5;entryY=0;entryDx=0;entryDy=0;" edge="1" parent="1c1d494c118603dd-2" source="tKoQLFKlRTiB3hd4TVec-29" target="tKoQLFKlRTiB3hd4TVec-31">
          <mxGeometry relative="1" as="geometry" />
        </mxCell>
        <mxCell id="tKoQLFKlRTiB3hd4TVec-29" value="Receive registration result" style="whiteSpace=wrap;html=1;fontFamily=Verdana;rounded=1;shadow=0;comic=0;labelBackgroundColor=none;strokeWidth=1;arcSize=50;" vertex="1" parent="1c1d494c118603dd-2">
          <mxGeometry x="55" y="1080" width="120" height="60" as="geometry" />
        </mxCell>
        <mxCell id="tKoQLFKlRTiB3hd4TVec-31" value="" style="shape=mxgraph.bpmn.shape;html=1;verticalLabelPosition=bottom;labelBackgroundColor=#ffffff;verticalAlign=top;perimeter=ellipsePerimeter;outline=end;symbol=terminate;rounded=0;shadow=0;comic=0;strokeWidth=1;fontFamily=Verdana;fontSize=12;align=center;" vertex="1" parent="1c1d494c118603dd-2">
          <mxGeometry x="95" y="1180" width="40" height="40" as="geometry" />
        </mxCell>
        <mxCell id="1c1d494c118603dd-3" value="System" style="swimlane;html=1;startSize=20;" parent="1c1d494c118603dd-1" vertex="1">
          <mxGeometry x="250" y="20" width="260" height="1280" as="geometry" />
        </mxCell>
        <mxCell id="tKoQLFKlRTiB3hd4TVec-9" value="" style="edgeStyle=orthogonalEdgeStyle;rounded=0;orthogonalLoop=1;jettySize=auto;html=1;" edge="1" parent="1c1d494c118603dd-3" source="tKoQLFKlRTiB3hd4TVec-6" target="tKoQLFKlRTiB3hd4TVec-8">
          <mxGeometry relative="1" as="geometry" />
        </mxCell>
        <mxCell id="tKoQLFKlRTiB3hd4TVec-6" value="Create visitor record" style="whiteSpace=wrap;html=1;fontFamily=Verdana;rounded=1;shadow=0;comic=0;labelBackgroundColor=none;strokeWidth=1;arcSize=50;" vertex="1" parent="1c1d494c118603dd-3">
          <mxGeometry x="72.5" y="232.5" width="105" height="45" as="geometry" />
        </mxCell>
        <mxCell id="tKoQLFKlRTiB3hd4TVec-8" value="Notify Security Staff of new registration" style="whiteSpace=wrap;html=1;fontFamily=Verdana;rounded=1;shadow=0;comic=0;labelBackgroundColor=none;strokeWidth=1;arcSize=50;" vertex="1" parent="1c1d494c118603dd-3">
          <mxGeometry x="65" y="330" width="120" height="60" as="geometry" />
        </mxCell>
        <mxCell id="tKoQLFKlRTiB3hd4TVec-21" value="" style="edgeStyle=orthogonalEdgeStyle;rounded=0;orthogonalLoop=1;jettySize=auto;html=1;" edge="1" parent="1c1d494c118603dd-3" source="tKoQLFKlRTiB3hd4TVec-14" target="tKoQLFKlRTiB3hd4TVec-20">
          <mxGeometry relative="1" as="geometry" />
        </mxCell>
        <mxCell id="tKoQLFKlRTiB3hd4TVec-14" value="Update visitor record to &quot;Approved&quot;" style="rounded=1;whiteSpace=wrap;html=1;shadow=0;comic=0;labelBackgroundColor=none;strokeWidth=1;fontFamily=Verdana;fontSize=12;align=center;arcSize=50;" vertex="1" parent="1c1d494c118603dd-3">
          <mxGeometry x="10" y="600" width="100" height="70" as="geometry" />
        </mxCell>
        <mxCell id="tKoQLFKlRTiB3hd4TVec-25" value="" style="edgeStyle=orthogonalEdgeStyle;rounded=0;orthogonalLoop=1;jettySize=auto;html=1;" edge="1" parent="1c1d494c118603dd-3" source="tKoQLFKlRTiB3hd4TVec-15" target="tKoQLFKlRTiB3hd4TVec-24">
          <mxGeometry relative="1" as="geometry" />
        </mxCell>
        <mxCell id="tKoQLFKlRTiB3hd4TVec-15" value="Update visitor record to &quot;Rejected&quot;" style="rounded=1;whiteSpace=wrap;html=1;shadow=0;comic=0;labelBackgroundColor=none;strokeWidth=1;fontFamily=Verdana;fontSize=12;align=center;arcSize=50;" vertex="1" parent="1c1d494c118603dd-3">
          <mxGeometry x="150" y="600" width="100" height="70" as="geometry" />
        </mxCell>
        <mxCell id="tKoQLFKlRTiB3hd4TVec-23" value="" style="edgeStyle=orthogonalEdgeStyle;rounded=0;orthogonalLoop=1;jettySize=auto;html=1;" edge="1" parent="1c1d494c118603dd-3" source="tKoQLFKlRTiB3hd4TVec-20" target="tKoQLFKlRTiB3hd4TVec-22">
          <mxGeometry relative="1" as="geometry" />
        </mxCell>
        <mxCell id="tKoQLFKlRTiB3hd4TVec-20" value="Generate visitor access code" style="whiteSpace=wrap;html=1;fontFamily=Verdana;rounded=1;shadow=0;comic=0;labelBackgroundColor=none;strokeWidth=1;arcSize=50;" vertex="1" parent="1c1d494c118603dd-3">
          <mxGeometry y="720" width="120" height="60" as="geometry" />
        </mxCell>
        <mxCell id="tKoQLFKlRTiB3hd4TVec-22" value="Send approval notice and code to Student/Visitor" style="whiteSpace=wrap;html=1;fontFamily=Verdana;rounded=1;shadow=0;comic=0;labelBackgroundColor=none;strokeWidth=1;arcSize=50;" vertex="1" parent="1c1d494c118603dd-3">
          <mxGeometry y="830" width="120" height="60" as="geometry" />
        </mxCell>
        <mxCell id="tKoQLFKlRTiB3hd4TVec-24" value="Send rejection notice" style="whiteSpace=wrap;html=1;fontFamily=Verdana;rounded=1;shadow=0;comic=0;labelBackgroundColor=none;strokeWidth=1;arcSize=50;" vertex="1" parent="1c1d494c118603dd-3">
          <mxGeometry x="140" y="830" width="120" height="60" as="geometry" />
        </mxCell>
        <mxCell id="tKoQLFKlRTiB3hd4TVec-26" value="" style="whiteSpace=wrap;html=1;rounded=0;shadow=0;comic=0;labelBackgroundColor=none;strokeWidth=1;fillColor=#000000;fontFamily=Verdana;fontSize=12;align=center;rotation=0;" vertex="1" parent="1c1d494c118603dd-3">
          <mxGeometry x="56.5" y="990" width="147" height="10" as="geometry" />
        </mxCell>
        <mxCell id="tKoQLFKlRTiB3hd4TVec-27" style="edgeStyle=orthogonalEdgeStyle;rounded=0;orthogonalLoop=1;jettySize=auto;html=1;entryX=0.371;entryY=0.2;entryDx=0;entryDy=0;entryPerimeter=0;" edge="1" parent="1c1d494c118603dd-3" source="tKoQLFKlRTiB3hd4TVec-22" target="tKoQLFKlRTiB3hd4TVec-26">
          <mxGeometry relative="1" as="geometry" />
        </mxCell>
        <mxCell id="tKoQLFKlRTiB3hd4TVec-28" style="edgeStyle=orthogonalEdgeStyle;rounded=0;orthogonalLoop=1;jettySize=auto;html=1;entryX=0.69;entryY=-0.3;entryDx=0;entryDy=0;entryPerimeter=0;" edge="1" parent="1c1d494c118603dd-3" source="tKoQLFKlRTiB3hd4TVec-24" target="tKoQLFKlRTiB3hd4TVec-26">
          <mxGeometry relative="1" as="geometry" />
        </mxCell>
        <mxCell id="1c1d494c118603dd-4" value="Dorm Administrator" style="swimlane;html=1;startSize=20;" parent="1c1d494c118603dd-1" vertex="1">
          <mxGeometry x="510" y="20" width="250" height="1280" as="geometry" />
        </mxCell>
        <mxCell id="tKoQLFKlRTiB3hd4TVec-13" style="edgeStyle=orthogonalEdgeStyle;rounded=0;orthogonalLoop=1;jettySize=auto;html=1;entryX=0.5;entryY=0;entryDx=0;entryDy=0;" edge="1" parent="1c1d494c118603dd-4" source="tKoQLFKlRTiB3hd4TVec-10" target="tKoQLFKlRTiB3hd4TVec-12">
          <mxGeometry relative="1" as="geometry" />
        </mxCell>
        <mxCell id="tKoQLFKlRTiB3hd4TVec-10" value="review registration info" style="whiteSpace=wrap;html=1;fontFamily=Verdana;rounded=1;shadow=0;comic=0;labelBackgroundColor=none;strokeWidth=1;arcSize=50;" vertex="1" parent="1c1d494c118603dd-4">
          <mxGeometry x="65" y="330" width="120" height="60" as="geometry" />
        </mxCell>
        <mxCell id="tKoQLFKlRTiB3hd4TVec-12" value="Approve?" style="rhombus;whiteSpace=wrap;html=1;" vertex="1" parent="1c1d494c118603dd-4">
          <mxGeometry x="57.5" y="440" width="135" height="80" as="geometry" />
        </mxCell>
        <mxCell id="tKoQLFKlRTiB3hd4TVec-7" value="" style="edgeStyle=orthogonalEdgeStyle;rounded=0;orthogonalLoop=1;jettySize=auto;html=1;" edge="1" parent="1c1d494c118603dd-1" source="tKoQLFKlRTiB3hd4TVec-4" target="tKoQLFKlRTiB3hd4TVec-6">
          <mxGeometry relative="1" as="geometry" />
        </mxCell>
        <mxCell id="tKoQLFKlRTiB3hd4TVec-11" value="" style="edgeStyle=orthogonalEdgeStyle;rounded=0;orthogonalLoop=1;jettySize=auto;html=1;" edge="1" parent="1c1d494c118603dd-1" source="tKoQLFKlRTiB3hd4TVec-8" target="tKoQLFKlRTiB3hd4TVec-10">
          <mxGeometry relative="1" as="geometry" />
        </mxCell>
        <mxCell id="tKoQLFKlRTiB3hd4TVec-16" style="edgeStyle=orthogonalEdgeStyle;rounded=0;orthogonalLoop=1;jettySize=auto;html=1;entryX=0.5;entryY=0;entryDx=0;entryDy=0;exitX=0.5;exitY=1;exitDx=0;exitDy=0;" edge="1" parent="1c1d494c118603dd-1" source="tKoQLFKlRTiB3hd4TVec-12" target="tKoQLFKlRTiB3hd4TVec-14">
          <mxGeometry relative="1" as="geometry">
            <Array as="points">
              <mxPoint x="625" y="560" />
              <mxPoint x="310" y="560" />
            </Array>
          </mxGeometry>
        </mxCell>
        <mxCell id="tKoQLFKlRTiB3hd4TVec-18" value="Yes" style="edgeLabel;html=1;align=center;verticalAlign=middle;resizable=0;points=[];" vertex="1" connectable="0" parent="tKoQLFKlRTiB3hd4TVec-16">
          <mxGeometry x="-0.119" y="-2" relative="1" as="geometry">
            <mxPoint as="offset" />
          </mxGeometry>
        </mxCell>
        <mxCell id="tKoQLFKlRTiB3hd4TVec-17" style="edgeStyle=orthogonalEdgeStyle;rounded=0;orthogonalLoop=1;jettySize=auto;html=1;exitX=1;exitY=0.5;exitDx=0;exitDy=0;entryX=0.5;entryY=0;entryDx=0;entryDy=0;" edge="1" parent="1c1d494c118603dd-1" source="tKoQLFKlRTiB3hd4TVec-12" target="tKoQLFKlRTiB3hd4TVec-15">
          <mxGeometry relative="1" as="geometry" />
        </mxCell>
        <mxCell id="tKoQLFKlRTiB3hd4TVec-19" value="No" style="edgeLabel;html=1;align=center;verticalAlign=middle;resizable=0;points=[];" vertex="1" connectable="0" parent="tKoQLFKlRTiB3hd4TVec-17">
          <mxGeometry x="0.0112" y="1" relative="1" as="geometry">
            <mxPoint x="1" as="offset" />
          </mxGeometry>
        </mxCell>
        <mxCell id="tKoQLFKlRTiB3hd4TVec-30" style="edgeStyle=orthogonalEdgeStyle;rounded=0;orthogonalLoop=1;jettySize=auto;html=1;" edge="1" parent="1c1d494c118603dd-1" source="tKoQLFKlRTiB3hd4TVec-26" target="tKoQLFKlRTiB3hd4TVec-29">
          <mxGeometry relative="1" as="geometry">
            <Array as="points">
              <mxPoint x="380" y="1060" />
              <mxPoint x="115" y="1060" />
            </Array>
          </mxGeometry>
        </mxCell>
      </root>
    </mxGraphModel>
  </diagram>
</mxfile>
